0 FILE case-plato.ldr
0 The Cave: the floor plan for the hand table
0 Name: case-plato.ldr
0 Author: tools/play-plan.js
0 !LDRAW_ORG Unofficial_Model
0 one stud to the metre; marks are plates, figures are bricks in their torso colour, sets are grey outlines

0 mark row
1 4 -280 0 260 1 0 0 0 1 0 0 0 1 3021.dat
0 mark screen
1 14 -280 0 370 1 0 0 0 1 0 0 0 1 3021.dat
0 mark parapet
1 1 -280 0 -80 1 0 0 0 1 0 0 0 1 3021.dat
0 mark fire
1 2 -280 0 -80 1 0 0 0 1 0 0 0 1 3021.dat
0 mark slope
1 25 -460 0 180 1 0 0 0 1 0 0 0 1 3021.dat
0 mark out
1 26 -720 0 100 1 0 0 0 1 0 0 0 1 3021.dat
0 mark side
1 5 -340 0 280 1 0 0 0 1 0 0 0 1 3021.dat
0 a captive (shade) heading 180
1 14 -330 -24 260 1 0 0 0 1 0 0 0 1 3002.dat
0 a captive (shade) heading 180
1 14 -230 -24 260 1 0 0 0 1 0 0 0 1 3002.dat
0 the freed one (citizen) heading 180
1 4 -280 -24 260 1 0 0 0 1 0 0 0 1 3002.dat
0 a puppeteer (hauler) heading 0
1 71 -440 -24 280 1 0 0 0 1 0 0 0 1 3002.dat
0 a puppeteer (hauler) heading 0
1 71 -160 -24 300 1 0 0 0 1 0 0 0 1 3002.dat
