0 FILE case-ewoks.ldr
0 The Forest Skirmish: the floor plan for the hand table
0 Name: case-ewoks.ldr
0 Author: tools/play-plan.js
0 !LDRAW_ORG Unofficial_Model
0 one stud to the metre; marks are plates, figures are bricks in their torso colour, sets are grey outlines

0 mark ewok-cover
1 4 -420 0 40 1 0 0 0 1 0 0 0 1 3021.dat
0 mark robot-cover
1 14 240 0 0 1 0 0 0 1 0 0 0 1 3021.dat
0 mark middle
1 1 -200 0 80 1 0 0 0 1 0 0 0 1 3021.dat
0 mark ewok-rush
1 2 -240 0 60 1 0 0 0 1 0 0 0 1 3021.dat
0 mark robot-rush
1 25 -120 0 100 1 0 0 0 1 0 0 0 1 3021.dat
0 mark track
1 26 -560 0 80 1 0 0 0 1 0 0 0 1 3021.dat
0 mark back
1 5 0 0 480 1 0 0 0 1 0 0 0 1 3021.dat
0 an Ewok (ewok) heading 90
1 308 -400 -24 -20 0 0 -1 0 1 0 1 0 0 3002.dat
0 an Ewok (ewok) heading 90
1 308 -440 -24 40 0 0 -1 0 1 0 1 0 0 3002.dat
0 an Ewok (ewok) heading 90
1 308 -380 -24 80 0 0 -1 0 1 0 1 0 0 3002.dat
0 a robot (robot) heading 270
1 72 240 -24 -40 0 0 -1 0 1 0 1 0 0 3002.dat
0 a robot (robot) heading 270
1 72 280 -24 20 0 0 -1 0 1 0 1 0 0 3002.dat
0 a robot (robot) heading 270
1 72 220 -24 60 0 0 -1 0 1 0 1 0 0 3002.dat
