0 FILE case-searchers.ldr
0 The Searchers: the floor plan for the hand table
0 Name: case-searchers.ldr
0 Author: tools/play-plan.js
0 !LDRAW_ORG Unofficial_Model
0 one stud to the metre; marks are plates, figures are bricks in their torso colour, sets are grey outlines

0 mark inside
1 4 8 0 -116 1 0 0 0 1 0 0 0 1 3021.dat
0 mark step
1 14 -10 0 26 1 0 0 0 1 0 0 0 1 3021.dat
0 mark porch-a
1 1 -18 0 -20 1 0 0 0 1 0 0 0 1 3021.dat
0 mark yard-e
1 2 20 0 160 1 0 0 0 1 0 0 0 1 3021.dat
0 mark yard-d
1 25 44 0 168 1 0 0 0 1 0 0 0 1 3021.dat
0 mark porch-d
1 26 -8 0 -26 1 0 0 0 1 0 0 0 1 3021.dat
0 mark porch-m
1 5 -2 0 -28 1 0 0 0 1 0 0 0 1 3021.dat
0 mark door-out
1 15 2 0 -22 1 0 0 0 1 0 0 0 1 3021.dat
0 mark room-d
1 4 68 0 -128 1 0 0 0 1 0 0 0 1 3021.dat
0 mark room-m
1 14 72 0 -150 1 0 0 0 1 0 0 0 1 3021.dat
0 mark room-a
1 1 48 0 -152 1 0 0 0 1 0 0 0 1 3021.dat
0 mark desert
1 2 32 0 520 1 0 0 0 1 0 0 0 1 3021.dat
0 Martha (martha) heading 180
1 14 8 -24 -116 1 0 0 0 1 0 0 0 1 3002.dat
0 Aaron (aaron) heading 180
1 14 80 -24 -120 1 0 0 0 1 0 0 0 1 3002.dat
0 Ethan (ethan) heading 0
1 14 92 -24 720 1 0 0 0 1 0 0 0 1 3002.dat
0 Debbie (debbie) heading 0
1 14 116 -24 732 1 0 0 0 1 0 0 0 1 3002.dat
