0 FILE case-grocery.ldr
0 The Checkout: the floor plan for the hand table
0 Name: case-grocery.ldr
0 Author: tools/play-plan.js
0 !LDRAW_ORG Unofficial_Model
0 one stud to the metre; marks are plates, figures are bricks in their torso colour, sets are grey outlines

0 mark cart
1 4 -30 0 52 1 0 0 0 1 0 0 0 1 3021.dat
0 mark belt
1 14 0 0 44 1 0 0 0 1 0 0 0 1 3021.dat
0 mark register
1 1 50 0 -16 1 0 0 0 1 0 0 0 1 3021.dat
0 mark bags
1 2 84 0 -12 1 0 0 0 1 0 0 0 1 3021.dat
0 mark queue
1 25 -90 0 64 1 0 0 0 1 0 0 0 1 3021.dat
0 mark door
1 15 140 0 80 1 0 0 0 1 0 0 0 1 3021.dat
0 Marge (marge) heading 0
1 2 -30 -24 52 1 0 0 0 1 0 0 0 1 3002.dat
0 Maggie (maggie) heading 0
1 1 0 -24 44 1 0 0 0 1 0 0 0 1 3002.dat
0 the clerk (citizen) heading 180
1 4 50 -24 -16 1 0 0 0 1 0 0 0 1 3002.dat
0 Homer (homer) heading 60
1 15 -90 -24 64 1 0 0 0 1 0 0 0 1 3002.dat
