0 FILE monkey-data-center.ldr
0 Monkey Data Center: the floor plan for the hand table
0 Name: monkey-data-center.ldr
0 Author: tools/play-plan.js
0 !LDRAW_ORG Unofficial_Model
0 one stud to the metre; marks are plates, figures are bricks in their torso colour, sets are grey outlines

0 mark console
1 4 -60 0 -120 1 0 0 0 1 0 0 0 1 3021.dat
0 mark rack
1 14 140 0 -40 1 0 0 0 1 0 0 0 1 3021.dat
0 mark banana
1 1 40 0 80 1 0 0 0 1 0 0 0 1 3021.dat
0 mark door
1 2 0 0 170 1 0 0 0 1 0 0 0 1 3021.dat
0 mark hide-1
1 25 -120 0 100 1 0 0 0 1 0 0 0 1 3021.dat
0 mark hide-2
1 25 120 0 100 1 0 0 0 1 0 0 0 1 3021.dat
0 mark hide-3
1 25 -140 0 -100 1 0 0 0 1 0 0 0 1 3021.dat
0 mark centre
1 15 0 0 0 1 0 0 0 1 0 0 0 1 3021.dat
0 Alpha (monkey) heading 0
1 14 -60 -24 -100 1 0 0 0 1 0 0 0 1 3002.dat
0 Beta (monkey) heading 270
1 14 120 -24 -40 0 0 -1 0 1 0 1 0 0 3002.dat
0 Gamma (monkey-banana) heading 200
1 14 40 -24 80 1 0 0 0 1 0 0 0 1 3002.dat
0 the inspector (citizen) heading 0
1 4 0 -24 170 1 0 0 0 1 0 0 0 1 3002.dat
