0 FILE odyssey-cave.ldr
0 The Odyssey: Nobody: the floor plan for the hand table
0 Name: odyssey-cave.ldr
0 Author: tools/play-plan.js
0 !LDRAW_ORG Unofficial_Model
0 one stud to the metre; marks are plates, figures are bricks in their torso colour, sets are grey outlines

0 mark fire
1 4 0 0 0 1 0 0 0 1 0 0 0 1 3021.dat
0 mark wall
1 14 0 0 -160 1 0 0 0 1 0 0 0 1 3021.dat
0 mark mouth
1 1 0 0 240 1 0 0 0 1 0 0 0 1 3021.dat
0 mark hide-l
1 2 -100 0 60 1 0 0 0 1 0 0 0 1 3021.dat
0 mark hide-r
1 2 100 0 60 1 0 0 0 1 0 0 0 1 3021.dat
0 Odysseus (odysseus-sword) heading 0
1 308 12 -24 28 1 0 0 0 1 0 0 0 1 3002.dat
0 a man (hoplite) heading 30
1 297 -100 -24 60 1 0 0 0 1 0 0 0 1 3002.dat
0 a man (hoplite) heading 330
1 297 100 -24 60 1 0 0 0 1 0 0 0 1 3002.dat
0 a man (hauler) heading 20
1 71 -80 -24 100 1 0 0 0 1 0 0 0 1 3002.dat
0 a man (hauler) heading 340
1 71 80 -24 100 1 0 0 0 1 0 0 0 1 3002.dat
0 Polyphemus (polyphemus) heading 180
1 14 0 -24 -180 1 0 0 0 1 0 0 0 1 3002.dat
