0 FILE odyssey-swineherd.ldr
0 The Odyssey: the swineherd: the floor plan for the hand table
0 Name: odyssey-swineherd.ldr
0 Author: tools/play-plan.js
0 !LDRAW_ORG Unofficial_Model
0 one stud to the metre; marks are plates, figures are bricks in their torso colour, sets are grey outlines

0 mark gate
1 4 0 0 240 1 0 0 0 1 0 0 0 1 3021.dat
0 mark fire
1 14 0 0 -20 1 0 0 0 1 0 0 0 1 3021.dat
0 mark bench
1 1 60 0 20 1 0 0 0 1 0 0 0 1 3021.dat
0 mark sty
1 2 -160 0 80 1 0 0 0 1 0 0 0 1 3021.dat
0 Odysseus (odysseus-wet) heading 0
1 308 0 -24 320 1 0 0 0 1 0 0 0 1 3002.dat
0 Eumaeus (eumaeus) heading 180
1 308 24 -24 -20 1 0 0 0 1 0 0 0 1 3002.dat
0 Telemachus (telemachus-ithaca) heading 0
1 71 0 -24 440 1 0 0 0 1 0 0 0 1 3002.dat
