0 FILE odyssey-circe.ldr
0 The Odyssey: Circe's wood: the floor plan for the hand table
0 Name: odyssey-circe.ldr
0 Author: tools/play-plan.js
0 !LDRAW_ORG Unofficial_Model
0 one stud to the metre; marks are plates, figures are bricks in their torso colour, sets are grey outlines

0 mark door
1 4 0 0 -80 1 0 0 0 1 0 0 0 1 3021.dat
0 mark table
1 14 0 0 20 1 0 0 0 1 0 0 0 1 3021.dat
0 mark sty
1 1 180 0 100 1 0 0 0 1 0 0 0 1 3021.dat
0 mark path
1 2 0 0 280 1 0 0 0 1 0 0 0 1 3021.dat
0 Odysseus (odysseus-sword) heading 0
1 308 0 -24 280 1 0 0 0 1 0 0 0 1 3002.dat
0 Circe (circe) heading 180
1 26 0 -24 -80 1 0 0 0 1 0 0 0 1 3002.dat
0 Eurylochus (commander) heading 0
1 308 -40 -24 200 1 0 0 0 1 0 0 0 1 3002.dat
0 a man (hauler) heading 0
1 71 30 -24 60 1 0 0 0 1 0 0 0 1 3002.dat
0 a man (hauler) heading 0
1 71 -30 -24 70 1 0 0 0 1 0 0 0 1 3002.dat
0 a man (hauler) heading 0
1 71 8 -24 100 1 0 0 0 1 0 0 0 1 3002.dat
