0 FILE odyssey-sirens.ldr
0 The Odyssey: the Sirens: the floor plan for the hand table
0 Name: odyssey-sirens.ldr
0 Author: tools/play-plan.js
0 !LDRAW_ORG Unofficial_Model
0 one stud to the metre; marks are plates, figures are bricks in their torso colour, sets are grey outlines

0 mark mast
1 4 0 0 -30 1 0 0 0 1 0 0 0 1 3021.dat
0 mark bow
1 14 0 0 -260 1 0 0 0 1 0 0 0 1 3021.dat
0 mark stern
1 1 0 0 240 1 0 0 0 1 0 0 0 1 3021.dat
0 mark helm
1 2 0 0 180 1 0 0 0 1 0 0 0 1 3021.dat
0 Odysseus (odysseus-wet) heading 0
1 308 0 -24 120 1 0 0 0 1 0 0 0 1 3002.dat
0 the helmsman (sailor) heading 0
1 71 0 -24 190 1 0 0 0 1 0 0 0 1 3002.dat
0 a rower (sailor) heading 270
1 71 -84 -24 -180 0 0 -1 0 1 0 1 0 0 3002.dat
0 a rower (sailor) heading 270
1 71 -84 -24 -112 0 0 -1 0 1 0 1 0 0 3002.dat
0 a rower (sailor) heading 270
1 71 -84 -24 -44 0 0 -1 0 1 0 1 0 0 3002.dat
0 a rower (sailor) heading 270
1 71 -84 -24 24 0 0 -1 0 1 0 1 0 0 3002.dat
0 a rower (sailor) heading 90
1 71 84 -24 -180 0 0 -1 0 1 0 1 0 0 3002.dat
0 a rower (sailor) heading 90
1 71 84 -24 -112 0 0 -1 0 1 0 1 0 0 3002.dat
0 a rower (sailor) heading 90
1 71 84 -24 -44 0 0 -1 0 1 0 1 0 0 3002.dat
0 a rower (sailor) heading 90
1 71 84 -24 24 0 0 -1 0 1 0 1 0 0 3002.dat
