0 FILE odyssey-raft.ldr
0 The Odyssey: the raft: the floor plan for the hand table
0 Name: odyssey-raft.ldr
0 Author: tools/play-plan.js
0 !LDRAW_ORG Unofficial_Model
0 one stud to the metre; marks are plates, figures are bricks in their torso colour, sets are grey outlines

0 the grove: set 6278, 77 by 39 metres
1 72 -1849 0 -192 1 0 0 0 1 0 0 0 1 3008.dat
1 72 -1849 0 592 1 0 0 0 1 0 0 0 1 3008.dat
1 72 -1689 0 -192 1 0 0 0 1 0 0 0 1 3008.dat
1 72 -1689 0 592 1 0 0 0 1 0 0 0 1 3008.dat
1 72 -1529 0 -192 1 0 0 0 1 0 0 0 1 3008.dat
1 72 -1529 0 592 1 0 0 0 1 0 0 0 1 3008.dat
1 72 -1369 0 -192 1 0 0 0 1 0 0 0 1 3008.dat
1 72 -1369 0 592 1 0 0 0 1 0 0 0 1 3008.dat
1 72 -1209 0 -192 1 0 0 0 1 0 0 0 1 3008.dat
1 72 -1209 0 592 1 0 0 0 1 0 0 0 1 3008.dat
1 72 -1049 0 -192 1 0 0 0 1 0 0 0 1 3008.dat
1 72 -1049 0 592 1 0 0 0 1 0 0 0 1 3008.dat
1 72 -889 0 -192 1 0 0 0 1 0 0 0 1 3008.dat
1 72 -889 0 592 1 0 0 0 1 0 0 0 1 3008.dat
1 72 -729 0 -192 1 0 0 0 1 0 0 0 1 3008.dat
1 72 -729 0 592 1 0 0 0 1 0 0 0 1 3008.dat
1 72 -569 0 -192 1 0 0 0 1 0 0 0 1 3008.dat
1 72 -569 0 592 1 0 0 0 1 0 0 0 1 3008.dat
1 72 -1929 0 -112 0 0 -1 0 1 0 1 0 0 3008.dat
1 72 -391 0 -112 0 0 -1 0 1 0 1 0 0 3008.dat
1 72 -1929 0 48 0 0 -1 0 1 0 1 0 0 3008.dat
1 72 -391 0 48 0 0 -1 0 1 0 1 0 0 3008.dat
1 72 -1929 0 208 0 0 -1 0 1 0 1 0 0 3008.dat
1 72 -391 0 208 0 0 -1 0 1 0 1 0 0 3008.dat
1 72 -1929 0 368 0 0 -1 0 1 0 1 0 0 3008.dat
1 72 -391 0 368 0 0 -1 0 1 0 1 0 0 3008.dat
0 the raft: set 6256, 20 by 14 metres
1 72 160 0 -417 1 0 0 0 1 0 0 0 1 3008.dat
1 72 160 0 -142 1 0 0 0 1 0 0 0 1 3008.dat
1 72 320 0 -417 1 0 0 0 1 0 0 0 1 3008.dat
1 72 320 0 -142 1 0 0 0 1 0 0 0 1 3008.dat
1 72 80 0 -337 0 0 -1 0 1 0 1 0 0 3008.dat
1 72 480 0 -337 0 0 -1 0 1 0 1 0 0 3008.dat
0 mark shore
1 4 0 0 -60 1 0 0 0 1 0 0 0 1 3021.dat
0 mark cave
1 14 -280 0 80 1 0 0 0 1 0 0 0 1 3021.dat
0 mark landing
1 1 280 0 40 1 0 0 0 1 0 0 0 1 3021.dat
0 mark raft
1 2 160 0 -180 1 0 0 0 1 0 0 0 1 3021.dat
0 Odysseus (odysseus) heading 0
1 320 0 -24 -60 1 0 0 0 1 0 0 0 1 3002.dat
0 Calypso (calypso) heading 270
1 1 -280 -24 80 0 0 -1 0 1 0 1 0 0 3002.dat
0 Hermes (hermes) heading 90
1 15 320 -24 40 0 0 -1 0 1 0 1 0 0 3002.dat
