0 FILE odyssey-bow.ldr
0 The Odyssey: the bow: the floor plan for the hand table
0 Name: odyssey-bow.ldr
0 Author: tools/play-plan.js
0 !LDRAW_ORG Unofficial_Model
0 one stud to the metre; marks are plates, figures are bricks in their torso colour, sets are grey outlines

0 mark threshold
1 4 0 0 160 1 0 0 0 1 0 0 0 1 3021.dat
0 mark hearth
1 14 0 0 0 1 0 0 0 1 0 0 0 1 3021.dat
0 mark stair
1 1 140 0 -120 1 0 0 0 1 0 0 0 1 3021.dat
0 mark doors
1 2 -60 0 180 1 0 0 0 1 0 0 0 1 3021.dat
0 mark axes
1 25 0 0 -80 1 0 0 0 1 0 0 0 1 3021.dat
0 Odysseus (odysseus-wet) heading 0
1 308 0 -24 160 1 0 0 0 1 0 0 0 1 3002.dat
0 Penelope (penelope-ithaca) heading 90
1 272 140 -24 -120 0 0 -1 0 1 0 1 0 0 3002.dat
0 Telemachus (telemachus-ithaca) heading 0
1 71 60 -24 40 1 0 0 0 1 0 0 0 1 3002.dat
0 Eumaeus (eumaeus) heading 0
1 308 -80 -24 120 1 0 0 0 1 0 0 0 1 3002.dat
0 suitors: 0 at -5, -2
0 a suitor (suitor) heading 250
1 70 -160 -24 -60 1 0 0 0 1 0 0 0 1 3002.dat
0 a suitor (suitor) heading 270
1 70 -116 -24 -60 0 0 -1 0 1 0 1 0 0 3002.dat
0 a suitor (suitor) heading 290
1 70 -72 -24 -60 1 0 0 0 1 0 0 0 1 3002.dat
0 a suitor (suitor) heading 250
1 70 -28 -24 -60 1 0 0 0 1 0 0 0 1 3002.dat
0 a suitor (suitor) heading 270
1 70 -160 -24 -12 0 0 -1 0 1 0 1 0 0 3002.dat
0 a suitor (suitor) heading 290
1 70 -116 -24 -12 1 0 0 0 1 0 0 0 1 3002.dat
0 a suitor (suitor) heading 250
1 70 -72 -24 -12 1 0 0 0 1 0 0 0 1 3002.dat
0 a suitor (suitor) heading 270
1 70 -28 -24 -12 0 0 -1 0 1 0 1 0 0 3002.dat
